<svg xmlns="http://www.w3.org/2000/svg" xmlns:xlink="http://www.w3.org/1999/xlink" width="500" zoomAndPan="magnify" viewBox="0 0 375 374.999991" height="500" preserveAspectRatio="xMidYMid meet" version="1.0"><defs><g/><clipPath id="838fc86792"><path d="M 98.402344 94.527344 L 260 94.527344 L 260 162.027344 L 98.402344 162.027344 Z M 98.402344 94.527344 " clip-rule="nonzero"/></clipPath><clipPath id="148136a9a3"><path d="M 146 111 L 275.402344 111 L 275.402344 162.027344 L 146 162.027344 Z M 146 111 " clip-rule="nonzero"/></clipPath><clipPath id="d6281945ba"><path d="M 99.410156 213.128906 L 261 213.128906 L 261 280.464844 L 99.410156 280.464844 Z M 99.410156 213.128906 " clip-rule="nonzero"/></clipPath><clipPath id="261a2f0353"><path d="M 147 213.128906 L 276.410156 213.128906 L 276.410156 264 L 147 264 Z M 147 213.128906 " clip-rule="nonzero"/></clipPath></defs><g clip-path="url(#838fc86792)"><path fill="#4a95cf" d="M 200.085938 265.753906 C 155.242188 265.753906 118.894531 229.386719 118.894531 184.527344 C 118.894531 139.667969 155.242188 103.300781 200.085938 103.300781 C 223.304688 103.300781 244.242188 113.054688 259.042969 128.683594 C 242.5625 107.875 217.082031 94.523438 188.484375 94.523438 C 138.796875 94.523438 98.519531 134.820312 98.519531 184.527344 C 98.519531 234.234375 138.796875 274.53125 188.484375 274.53125 C 217.082031 274.53125 242.5625 261.179688 259.042969 240.371094 C 244.242188 256 223.304688 265.753906 200.085938 265.753906 " fill-opacity="1" fill-rule="nonzero"/></g><g clip-path="url(#148136a9a3)"><path fill="#393536" d="M 202.453125 111.640625 C 180.238281 111.640625 160.347656 121.589844 146.988281 137.273438 C 160.011719 125.082031 177.511719 117.613281 196.753906 117.613281 C 236.992188 117.613281 269.613281 150.246094 269.613281 190.5 C 269.613281 208.527344 263.066406 225.023438 252.226562 237.746094 C 266.433594 224.449219 275.308594 205.527344 275.308594 184.527344 C 275.308594 144.273438 242.691406 111.640625 202.453125 111.640625 " fill-opacity="1" fill-rule="nonzero"/></g><g clip-path="url(#d6281945ba)"><path fill="#4a95cf" d="M 201.09375 109.238281 C 156.25 109.238281 119.902344 145.605469 119.902344 190.464844 C 119.902344 235.324219 156.25 271.691406 201.09375 271.691406 C 224.3125 271.691406 245.25 261.9375 260.050781 246.308594 C 243.570312 267.117188 218.089844 280.46875 189.492188 280.46875 C 139.804688 280.46875 99.527344 240.171875 99.527344 190.464844 C 99.527344 140.757812 139.804688 100.460938 189.492188 100.460938 C 218.089844 100.460938 243.570312 113.8125 260.050781 134.621094 C 245.25 118.992188 224.3125 109.238281 201.09375 109.238281 " fill-opacity="1" fill-rule="nonzero"/></g><g clip-path="url(#261a2f0353)"><path fill="#393536" d="M 203.460938 263.351562 C 181.246094 263.351562 161.355469 253.40625 147.996094 237.71875 C 161.019531 249.914062 178.519531 257.378906 197.761719 257.378906 C 238 257.378906 270.621094 224.746094 270.621094 184.492188 C 270.621094 166.464844 264.074219 149.96875 253.234375 137.246094 C 267.441406 150.546875 276.316406 169.46875 276.316406 190.464844 C 276.316406 230.71875 243.699219 263.351562 203.460938 263.351562 " fill-opacity="1" fill-rule="nonzero"/></g><g fill="#000000" fill-opacity="1"><g transform="translate(53.020586, 198.374987)"><g><path d="M 36.453125 -22.359375 L 29.140625 0 L 23.578125 0 L 18.65625 -15.140625 L 13.578125 0 L 8.046875 0 L 0.703125 -22.359375 L 6.078125 -22.359375 L 11.125 -6.640625 L 16.390625 -22.359375 L 21.1875 -22.359375 L 26.296875 -6.515625 L 31.5 -22.359375 Z M 36.453125 -22.359375 "/></g></g></g><g fill="#000000" fill-opacity="1"><g transform="translate(90.66615, 198.374987)"><g><path d="M 13.484375 0.390625 C 11.160156 0.390625 9.066406 -0.109375 7.203125 -1.109375 C 5.335938 -2.117188 3.878906 -3.5 2.828125 -5.25 C 1.773438 -7.007812 1.25 -8.988281 1.25 -11.1875 C 1.25 -13.375 1.773438 -15.347656 2.828125 -17.109375 C 3.878906 -18.867188 5.335938 -20.25 7.203125 -21.25 C 9.066406 -22.25 11.160156 -22.75 13.484375 -22.75 C 15.804688 -22.75 17.894531 -22.25 19.75 -21.25 C 21.601562 -20.25 23.0625 -18.867188 24.125 -17.109375 C 25.1875 -15.347656 25.71875 -13.375 25.71875 -11.1875 C 25.71875 -8.988281 25.1875 -7.007812 24.125 -5.25 C 23.0625 -3.5 21.601562 -2.117188 19.75 -1.109375 C 17.894531 -0.109375 15.804688 0.390625 13.484375 0.390625 Z M 13.484375 -4.03125 C 14.804688 -4.03125 16 -4.332031 17.0625 -4.9375 C 18.125 -5.539062 18.957031 -6.382812 19.5625 -7.46875 C 20.175781 -8.5625 20.484375 -9.800781 20.484375 -11.1875 C 20.484375 -12.570312 20.175781 -13.804688 19.5625 -14.890625 C 18.957031 -15.972656 18.125 -16.816406 17.0625 -17.421875 C 16 -18.035156 14.804688 -18.34375 13.484375 -18.34375 C 12.160156 -18.34375 10.96875 -18.035156 9.90625 -17.421875 C 8.84375 -16.816406 8.003906 -15.972656 7.390625 -14.890625 C 6.785156 -13.804688 6.484375 -12.570312 6.484375 -11.1875 C 6.484375 -9.800781 6.785156 -8.5625 7.390625 -7.46875 C 8.003906 -6.382812 8.84375 -5.539062 9.90625 -4.9375 C 10.96875 -4.332031 12.160156 -4.03125 13.484375 -4.03125 Z M 13.484375 -4.03125 "/></g></g></g><g fill="#000000" fill-opacity="1"><g transform="translate(118.117397, 198.374987)"><g><path d="M 16.90625 0 L 12.59375 -6.234375 L 7.828125 -6.234375 L 7.828125 0 L 2.65625 0 L 2.65625 -22.359375 L 12.328125 -22.359375 C 14.316406 -22.359375 16.039062 -22.03125 17.5 -21.375 C 18.957031 -20.71875 20.078125 -19.78125 20.859375 -18.5625 C 21.648438 -17.351562 22.046875 -15.914062 22.046875 -14.25 C 22.046875 -12.59375 21.644531 -11.160156 20.84375 -9.953125 C 20.050781 -8.742188 18.921875 -7.820312 17.453125 -7.1875 L 22.46875 0 Z M 16.8125 -14.25 C 16.8125 -15.507812 16.40625 -16.472656 15.59375 -17.140625 C 14.78125 -17.816406 13.597656 -18.15625 12.046875 -18.15625 L 7.828125 -18.15625 L 7.828125 -10.359375 L 12.046875 -10.359375 C 13.597656 -10.359375 14.78125 -10.695312 15.59375 -11.375 C 16.40625 -12.050781 16.8125 -13.007812 16.8125 -14.25 Z M 16.8125 -14.25 "/></g></g></g><g fill="#000000" fill-opacity="1"><g transform="translate(142.085323, 198.374987)"><g><path d="M 10.796875 -8.78125 L 7.796875 -5.65625 L 7.796875 0 L 2.65625 0 L 2.65625 -22.359375 L 7.796875 -22.359375 L 7.796875 -11.921875 L 17.703125 -22.359375 L 23.453125 -22.359375 L 14.1875 -12.390625 L 24 0 L 17.953125 0 Z M 10.796875 -8.78125 "/></g></g></g><g fill="#000000" fill-opacity="1"><g transform="translate(166.213037, 198.374987)"><g><path d="M 17.375 -4.796875 L 7 -4.796875 L 5.015625 0 L -0.28125 0 L 9.6875 -22.359375 L 14.796875 -22.359375 L 24.796875 0 L 19.359375 0 Z M 15.75 -8.71875 L 12.203125 -17.28125 L 8.65625 -8.71875 Z M 15.75 -8.71875 "/></g></g></g><g fill="#000000" fill-opacity="1"><g transform="translate(191.171639, 198.374987)"><g><path d="M 16.90625 0 L 12.59375 -6.234375 L 7.828125 -6.234375 L 7.828125 0 L 2.65625 0 L 2.65625 -22.359375 L 12.328125 -22.359375 C 14.316406 -22.359375 16.039062 -22.03125 17.5 -21.375 C 18.957031 -20.71875 20.078125 -19.78125 20.859375 -18.5625 C 21.648438 -17.351562 22.046875 -15.914062 22.046875 -14.25 C 22.046875 -12.59375 21.644531 -11.160156 20.84375 -9.953125 C 20.050781 -8.742188 18.921875 -7.820312 17.453125 -7.1875 L 22.46875 0 Z M 16.8125 -14.25 C 16.8125 -15.507812 16.40625 -16.472656 15.59375 -17.140625 C 14.78125 -17.816406 13.597656 -18.15625 12.046875 -18.15625 L 7.828125 -18.15625 L 7.828125 -10.359375 L 12.046875 -10.359375 C 13.597656 -10.359375 14.78125 -10.695312 15.59375 -11.375 C 16.40625 -12.050781 16.8125 -13.007812 16.8125 -14.25 Z M 16.8125 -14.25 "/></g></g></g><g fill="#000000" fill-opacity="1"><g transform="translate(215.139571, 198.374987)"><g><path d="M 13.484375 0.390625 C 11.160156 0.390625 9.066406 -0.109375 7.203125 -1.109375 C 5.335938 -2.117188 3.878906 -3.5 2.828125 -5.25 C 1.773438 -7.007812 1.25 -8.988281 1.25 -11.1875 C 1.25 -13.375 1.773438 -15.347656 2.828125 -17.109375 C 3.878906 -18.867188 5.335938 -20.25 7.203125 -21.25 C 9.066406 -22.25 11.160156 -22.75 13.484375 -22.75 C 15.804688 -22.75 17.894531 -22.25 19.75 -21.25 C 21.601562 -20.25 23.0625 -18.867188 24.125 -17.109375 C 25.1875 -15.347656 25.71875 -13.375 25.71875 -11.1875 C 25.71875 -8.988281 25.1875 -7.007812 24.125 -5.25 C 23.0625 -3.5 21.601562 -2.117188 19.75 -1.109375 C 17.894531 -0.109375 15.804688 0.390625 13.484375 0.390625 Z M 13.484375 -4.03125 C 14.804688 -4.03125 16 -4.332031 17.0625 -4.9375 C 18.125 -5.539062 18.957031 -6.382812 19.5625 -7.46875 C 20.175781 -8.5625 20.484375 -9.800781 20.484375 -11.1875 C 20.484375 -12.570312 20.175781 -13.804688 19.5625 -14.890625 C 18.957031 -15.972656 18.125 -16.816406 17.0625 -17.421875 C 16 -18.035156 14.804688 -18.34375 13.484375 -18.34375 C 12.160156 -18.34375 10.96875 -18.035156 9.90625 -17.421875 C 8.84375 -16.816406 8.003906 -15.972656 7.390625 -14.890625 C 6.785156 -13.804688 6.484375 -12.570312 6.484375 -11.1875 C 6.484375 -9.800781 6.785156 -8.5625 7.390625 -7.46875 C 8.003906 -6.382812 8.84375 -5.539062 9.90625 -4.9375 C 10.96875 -4.332031 12.160156 -4.03125 13.484375 -4.03125 Z M 13.484375 -4.03125 "/></g></g></g><g fill="#000000" fill-opacity="1"><g transform="translate(242.590821, 198.374987)"><g><path d="M 12.59375 0.390625 C 9.394531 0.390625 6.90625 -0.492188 5.125 -2.265625 C 3.34375 -4.035156 2.453125 -6.5625 2.453125 -9.84375 L 2.453125 -22.359375 L 7.640625 -22.359375 L 7.640625 -10.03125 C 7.640625 -6.03125 9.300781 -4.03125 12.625 -4.03125 C 14.238281 -4.03125 15.472656 -4.515625 16.328125 -5.484375 C 17.179688 -6.453125 17.609375 -7.96875 17.609375 -10.03125 L 17.609375 -22.359375 L 22.71875 -22.359375 L 22.71875 -9.84375 C 22.71875 -6.5625 21.828125 -4.035156 20.046875 -2.265625 C 18.265625 -0.492188 15.78125 0.390625 12.59375 0.390625 Z M 12.59375 0.390625 "/></g></g></g><g fill="#000000" fill-opacity="1"><g transform="translate(268.252466, 198.374987)"><g><path d="M 23.171875 -22.359375 L 23.171875 0 L 18.921875 0 L 7.765625 -13.578125 L 7.765625 0 L 2.65625 0 L 2.65625 -22.359375 L 6.9375 -22.359375 L 18.046875 -8.78125 L 18.046875 -22.359375 Z M 23.171875 -22.359375 "/></g></g></g><g fill="#000000" fill-opacity="1"><g transform="translate(294.553254, 198.374987)"><g><path d="M 2.65625 -22.359375 L 12.8125 -22.359375 C 15.238281 -22.359375 17.382812 -21.894531 19.25 -20.96875 C 21.113281 -20.050781 22.5625 -18.75 23.59375 -17.0625 C 24.625 -15.375 25.140625 -13.414062 25.140625 -11.1875 C 25.140625 -8.945312 24.625 -6.984375 23.59375 -5.296875 C 22.5625 -3.617188 21.113281 -2.316406 19.25 -1.390625 C 17.382812 -0.460938 15.238281 0 12.8125 0 L 2.65625 0 Z M 12.5625 -4.25 C 14.789062 -4.25 16.570312 -4.867188 17.90625 -6.109375 C 19.238281 -7.359375 19.90625 -9.050781 19.90625 -11.1875 C 19.90625 -13.3125 19.238281 -15 17.90625 -16.25 C 16.570312 -17.5 14.789062 -18.125 12.5625 -18.125 L 7.828125 -18.125 L 7.828125 -4.25 Z M 12.5625 -4.25 "/></g></g></g></svg>